# xmcd
# 
# Track frame offsets:
#     150
#     66899
#     154692
#     215551
# 
# Disc length: 3933
# 
# Revision: 0
# Processed by: cddbd v1.5.2PL0 Copyright (c) Steve Scherf et al.
# Submitted via: BonkEnc v1.0.6
# 
DISCID=330f5b04
DTITLE=Stefan M. Maul - Das Gilgamesch-Epos
DYEAR=2006
DGENRE=Hörbuch
TTITLE0=08 - Die 3. Tafel
TTITLE1=09 - Die 4. Tafel
TTITLE2=10 - Die 5. Tafel
TTITLE3=11 - Die 6. Tafel
EXTD=
EXTT0=
EXTT1=
EXTT2=
EXTT3=
PLAYORDER=
